<?xml version="1.0" encoding="utf-8"?>
<!-- Generator: Adobe Illustrator 22.0.1, SVG Export Plug-In . SVG Version: 6.00 Build 0)  -->
<svg version="1.1" id="Capa_1" xmlns="http://www.w3.org/2000/svg" xmlns:xlink="http://www.w3.org/1999/xlink" x="0px" y="0px"
	 viewBox="0 0 400 400" style="enable-background:new 0 0 400 400;" xml:space="preserve">
<g>
	<path d="M0,252.5v-59.3h40v6.9H7.9v18.8h25.5v6.9H7.9v19.8h32.8v6.9H0z"/>
</g>
<g>
	<path d="M85.5,204.3l22.1-59.3h9.3l22.1,59.3h-8.3l-5.6-15.5h-26l-5.6,15.5H85.5z M112.3,153.3h-0.3l-10.3,28.6h21L112.3,153.3z"/>
</g>
<g>
	<path d="M192.9,129.2l-3.4-5.9l19-13.1h5.9V163h14.1v6.6h-36.9V163h15.2v-43.4L192.9,129.2z"/>
</g>
<g>
	<path d="M274.6,148.4V89.1h40V96h-32.1v18.8h25.5v6.9h-25.5v19.8h32.8v6.9H274.6z"/>
</g>
<g>
	<path d="M394.8,197l-1.4-8.6h-0.3c-2.1,3.3-4.8,5.7-7.9,7.3s-7,2.4-11.5,2.4c-8.5,0-15.4-2.9-20.8-8.8c-5.4-5.8-8.2-13.2-8.2-21.9
		c0-8.8,2.7-16.1,8.2-22s12.5-8.8,21.1-8.8c7,0,12.8,1.8,17.2,5.4c4.5,3.6,7.4,8,8.6,13.2h-8.3c-0.9-3-2.8-5.7-5.7-8
		c-2.9-2.3-6.9-3.4-11.9-3.4c-6.4,0-11.5,2.2-15.3,6.7c-3.8,4.5-5.7,10.1-5.7,16.7c0,6.7,1.9,12.2,5.8,16.7
		c3.9,4.5,8.8,6.7,14.9,6.7c4.9,0,9.3-1.4,13.2-4.3c3.9-2.8,5.8-6.9,5.8-12.3v-1.7h-18.6v-6.9H400V197H394.8z"/>
</g>
<g>
	<polygon points="115.5,317.8 112.5,314.3 202,238.2 208.2,286.4 303.5,211 306.4,214.6 204.6,295.1 198.5,247.3 	"/>
</g>
</svg>
