<svg xmlns="http://www.w3.org/2000/svg" viewBox="0 0 64.94 37.23"><title>Recurso 1</title><g id="Capa_2" data-name="Capa 2"><g id="Capa_1-2" data-name="Capa 1"><path d="M0,26.53V16.9H6.5V18H1.29v3.05H5.43v1.12H1.29v3.22H6.61v1.12Z"/><path d="M13.89,18.71l3.58-9.63H19l3.59,9.63H21.22l-.91-2.52H16.09l-.91,2.52Zm4.34-8.29h-.06l-1.68,4.65h3.42Z"/><path d="M31.32,6.51l-.56-1,3.08-2.13h.95V12h2.3v1.06h-6V12h2.46V5Z"/><path d="M44.58,9.63V0h6.49V1.12H45.86V4.17H50V5.29H45.86V8.51h5.32V9.63Z"/><path d="M64.1,17.52l-.23-1.4h0a3.4,3.4,0,0,1-1.29,1.19,4.19,4.19,0,0,1-1.86.38,4.4,4.4,0,0,1-3.38-1.42A5,5,0,0,1,56,12.71,5.05,5.05,0,0,1,57.3,9.14a4.53,4.53,0,0,1,3.43-1.42,4.29,4.29,0,0,1,2.8.88,3.89,3.89,0,0,1,1.41,2.15H63.59a2.59,2.59,0,0,0-.93-1.3,3,3,0,0,0-1.93-.55A3.09,3.09,0,0,0,58.25,10a4,4,0,0,0-.93,2.72,4,4,0,0,0,.94,2.71,3.05,3.05,0,0,0,2.42,1.09,3.53,3.53,0,0,0,2.14-.69,2.32,2.32,0,0,0,.94-2v-.28h-3V12.43h4.21v5.09Z"/><polygon points="18.83 37.23 18.18 36.47 32.88 23.97 33.89 31.79 49.2 19.69 49.82 20.47 33.12 33.67 32.13 25.93 18.83 37.23"/></g></g></svg>