<?xml version="1.0" encoding="utf-8"?>
<!-- Generator: Adobe Illustrator 22.0.1, SVG Export Plug-In . SVG Version: 6.00 Build 0)  -->
<svg version="1.1" id="Capa_1" xmlns="http://www.w3.org/2000/svg" xmlns:xlink="http://www.w3.org/1999/xlink" x="0px" y="0px"
	 viewBox="0 0 953.9 652.4" style="enable-background:new 0 0 953.9 652.4;" xml:space="preserve">
<style type="text/css">
	.st0{fill:#FFF4B3;}
	.st1{fill:#FFF4B3;stroke:#000000;stroke-width:0.75;stroke-miterlimit:10;}
	.st2{fill:none;stroke:#000000;stroke-width:0.75;stroke-miterlimit:10;}
</style>
<g>
	<g>
		<path class="st0" d="M26,619.1V34.5h137.3v68h-110v185.2h87.6v68H53.2v195.4h112.4v68H26z"/>
		<path class="st0" d="M189.3,619.1L265,34.5H297l75.7,584.5h-28.4l-19.2-152.9h-89.3l-19.2,152.9H189.3z M281,116.1h-1.2
			l-35.5,282.1h72.2L281,116.1z"/>
		<path class="st0" d="M405.8,221.4L394,163.7l65.1-129.1h20.1v520h48.5v64.6H401.1v-64.6h52.1V127.1L405.8,221.4z"/>
		<path class="st0" d="M570.3,619.1V34.5h137.3v68h-110v185.2h87.6v68h-87.6v195.4h112.4v68H570.3z"/>
		<path class="st0" d="M902.8,619.1l-4.7-85h-0.9c-7.3,32.3-16.4,56.2-27.2,71.8c-10.8,15.6-24,23.4-39.3,23.4
			c-29,0-52.8-28.7-71.4-86.2c-18.6-57.5-28-129.6-28-216.2c0-86.7,9.4-158.7,28.1-216.2c18.7-57.5,42.9-86.2,72.5-86.2
			c24.1,0,43.8,17.7,59.2,53.1c15.4,35.4,25.2,78.9,29.6,130.4h-28.4c-3.2-30-9.7-56.2-19.7-78.6c-10-22.4-23.5-33.6-40.7-33.6
			c-21.9,0-39.4,22.1-52.5,66.3c-13.1,44.2-19.7,99.1-19.7,164.8c0,65.7,6.7,120.6,20,164.8s30.3,66.3,51,66.3c17,0,32-14,45.3-42.1
			c13.2-28,19.8-68.4,19.8-121.1v-17h-63.9v-68h88.7v309.3H902.8z"/>
	</g>
	<g>
		<path class="st1" d="M26,619.1V34.5h137.3v68h-110v185.2h87.6v68H53.2v195.4h112.4v68H26z"/>
		<path class="st1" d="M189.3,619.1L265,34.5H297l75.7,584.5h-28.4l-19.2-152.9h-89.3l-19.2,152.9H189.3z M281,116.1h-1.2
			l-35.5,282.1h72.2L281,116.1z"/>
		<path class="st1" d="M405.8,221.4L394,163.7l65.1-129.1h20.1v520h48.5v64.6H401.1v-64.6h52.1V127.1L405.8,221.4z"/>
		<path class="st1" d="M570.3,619.1V34.5h137.3v68h-110v185.2h87.6v68h-87.6v195.4h112.4v68H570.3z"/>
		<path class="st1" d="M902.8,619.1l-4.7-85h-0.9c-7.3,32.3-16.4,56.2-27.2,71.8c-10.8,15.6-24,23.4-39.3,23.4
			c-29,0-52.8-28.7-71.4-86.2c-18.6-57.5-28-129.6-28-216.2c0-86.7,9.4-158.7,28.1-216.2c18.7-57.5,42.9-86.2,72.5-86.2
			c24.1,0,43.8,17.7,59.2,53.1c15.4,35.4,25.2,78.9,29.6,130.4h-28.4c-3.2-30-9.7-56.2-19.7-78.6c-10-22.4-23.5-33.6-40.7-33.6
			c-21.9,0-39.4,22.1-52.5,66.3c-13.1,44.2-19.7,99.1-19.7,164.8c0,65.7,6.7,120.6,20,164.8s30.3,66.3,51,66.3c17,0,32-14,45.3-42.1
			c13.2-28,19.8-68.4,19.8-121.1v-17h-63.9v-68h88.7v309.3H902.8z"/>
	</g>
	<g>
		<path class="st2" d="M26,619.1V34.5h137.3v68h-110v185.2h87.6v68H53.2v195.4h112.4v68H26z"/>
		<path class="st2" d="M189.3,619.1L265,34.5H297l75.7,584.5h-28.4l-19.2-152.9h-89.3l-19.2,152.9H189.3z M281,116.1h-1.2
			l-35.5,282.1h72.2L281,116.1z"/>
		<path class="st2" d="M405.8,221.4L394,163.7l65.1-129.1h20.1v520h48.5v64.6H401.1v-64.6h52.1V127.1L405.8,221.4z"/>
		<path class="st2" d="M570.3,619.1V34.5h137.3v68h-110v185.2h87.6v68h-87.6v195.4h112.4v68H570.3z"/>
		<path class="st2" d="M902.8,619.1l-4.7-85h-0.9c-7.3,32.3-16.4,56.2-27.2,71.8c-10.8,15.6-24,23.4-39.3,23.4
			c-29,0-52.8-28.7-71.4-86.2c-18.6-57.5-28-129.6-28-216.2c0-86.7,9.4-158.7,28.1-216.2c18.7-57.5,42.9-86.2,72.5-86.2
			c24.1,0,43.8,17.7,59.2,53.1c15.4,35.4,25.2,78.9,29.6,130.4h-28.4c-3.2-30-9.7-56.2-19.7-78.6c-10-22.4-23.5-33.6-40.7-33.6
			c-21.9,0-39.4,22.1-52.5,66.3c-13.1,44.2-19.7,99.1-19.7,164.8c0,65.7,6.7,120.6,20,164.8s30.3,66.3,51,66.3c17,0,32-14,45.3-42.1
			c13.2-28,19.8-68.4,19.8-121.1v-17h-63.9v-68h88.7v309.3H902.8z"/>
	</g>
</g>
</svg>
